<svg width="191" height="116" viewBox="0 0 191 116" fill="none" xmlns="http://www.w3.org/2000/svg">
<path d="M95.9278 0.474534C90.5024 1.26495 80.7524 4.42661 68.0144 9.60822C56.2986 14.3507 44.1897 17.2489 33.9679 17.8637L25.0828 18.3028L21.3872 21.6401C16.8267 25.9435 8.64923 30.7738 3.77421 32.0911L0 33.145V37.0971C0 41.3127 1.17944 44.7378 2.43751 43.9474C2.83066 43.5961 3.14518 41.664 3.14518 39.4684C3.14518 37.1849 3.53832 35.6041 4.0101 35.6041C6.76213 35.6041 17.0626 29.3686 24.8469 22.9575C26.8912 21.2888 28.3852 20.9375 33.8893 20.8497C42.5385 20.674 55.0406 18.0393 65.2624 14.0872C92.2323 3.72402 96.4783 2.67013 108.509 3.37272C119.595 4.07532 125.099 5.56832 146.958 13.5603C157.18 17.3367 167.402 20.9375 169.682 21.5523C173.614 22.6062 174.636 23.4844 172.985 24.6261C171.805 25.5044 172.041 30.8616 173.378 32.0911C174.164 32.7937 175.815 32.9694 178.41 32.6181C183.206 31.9155 184.386 33.2329 184.386 39.4684C184.386 42.8935 184.7 43.9474 185.565 43.9474C186.43 43.9474 186.823 42.7178 186.981 39.0292C187.138 34.8137 186.902 33.672 185.329 31.5642C183.521 29.193 181.948 28.8417 177.309 29.6321C176.208 29.8077 175.658 29.3686 175.501 27.8756C175.265 26.2069 175.815 25.5922 178.41 24.4505C180.219 23.66 181.634 22.5183 181.634 21.9036C181.634 20.9375 180.219 20.4984 170.233 18.3028C168.975 18.0393 160.089 14.9655 150.575 11.4525C141.061 7.93957 129.581 4.07532 125.021 2.84578C115.821 0.298887 103.791 -0.667176 95.9278 0.474534Z" fill="#FEFEFE"/>
<path d="M122.582 15.8445C119.673 22.7826 119.988 22.6948 93.4108 23.3974C80.437 23.7487 69.6648 24.1878 69.4289 24.5391C69.193 24.8026 69.193 25.593 69.4289 26.2956C70.0579 28.1399 112.754 27.3495 117.707 25.4173C121.717 23.7487 125.806 18.6549 125.806 15.2298C125.806 11.2777 124.391 11.5412 122.582 15.8445Z" fill="#FEFEFE"/>
<path d="M29.0157 33.321C22.4109 35.9557 16.5137 42.279 16.5137 46.8459C16.5137 49.9197 18.7153 49.1293 20.3665 45.4407C26.0278 33.0575 43.169 32.7941 48.909 45.0016C50.7174 48.778 52.3687 49.8319 53.155 47.5485C54.413 43.9477 46.8646 35.5166 40.5743 33.4088C35.8565 31.828 32.79 31.828 29.0157 33.321Z" fill="#FEFEFE"/>
<path d="M148.216 32.8812C144.678 33.9351 139.803 36.9211 137.915 39.2924C135.635 42.0149 133.512 46.8452 134.063 47.8991C135.006 49.6556 136.815 48.6895 138.073 45.7035C138.78 44.0349 140.825 41.3123 142.555 39.7315C145.464 37.1846 146.407 36.9211 151.754 36.6576C157.337 36.3063 157.809 36.482 161.504 39.2924C163.706 40.8732 166.065 43.5957 166.93 45.44C167.716 47.2843 168.895 48.7773 169.524 48.7773C171.49 48.7773 170.704 44.7374 167.952 40.6975C163.784 34.6377 154.585 31.0369 148.216 32.8812Z" fill="#FEFEFE"/>
<path d="M64.3192 48.0758L61.5671 58.8782L34.7545 59.1416C9.04272 59.3173 7.86328 59.4051 7.86328 60.9859C7.86328 61.8642 8.41369 62.9181 9.12135 63.1815C9.82902 63.445 22.3311 63.7085 36.8775 63.7085C60.9381 63.7085 63.8474 63.8841 67.7789 65.3771C72.2607 67.1336 73.912 66.6945 73.912 63.8841C73.912 63.2694 76.5067 65.5528 79.7305 69.0657C82.9543 72.4909 86.5713 76.0917 87.8294 76.9699C90.2669 78.8142 93.1762 79.1655 93.9624 77.7603C94.277 77.2334 95.6137 77.0577 97.1076 77.409C99.0734 77.7603 100.096 77.4968 101.275 76.1795C102.061 75.3012 103.712 74.2474 104.892 73.8961C105.993 73.6326 106.936 72.93 106.936 72.4909C106.936 71.437 112.283 65.465 113.227 65.465C113.698 65.465 114.013 65.8163 114.013 66.3432C114.013 67.6606 116.45 67.3971 121.483 65.465C125.729 63.8841 128.088 63.7085 152.541 63.7085C174.007 63.7085 190.625 63.7085 190.94 62.8302C191.962 59.7564 179.118 59.3173 152.227 59.1416L125.571 58.8782L123.055 48.9541C121.64 43.509 120.225 38.7665 119.989 38.503C119.753 38.1517 117.63 38.5909 115.271 39.3813C112.991 40.1717 110.632 40.8743 110.081 40.8743C109.531 40.8743 108.43 41.489 107.723 42.1916C106.543 43.4212 105.993 43.3333 102.533 41.6647C98.2871 39.5569 94.7487 39.2934 85.7064 40.6108C80.4382 41.4012 79.2587 41.2256 74.3837 39.3813C71.3958 38.2396 68.4865 37.3613 68.0148 37.3613C67.4643 37.3613 65.8131 42.1038 64.3192 48.0758ZM100.331 44.0359C103.634 45.2655 106.779 46.0559 107.329 45.7924C108.194 45.4411 108.902 46.9341 110.081 51.3253C112.047 58.7025 112.755 62.8302 112.126 62.8302C111.89 62.8302 108.116 59.5808 103.791 55.5409C94.9846 47.2854 93.1762 46.8463 89.1661 51.501C86.0209 55.1896 84.6055 54.9261 85.156 50.7105C85.7064 47.1976 89.2447 43.0699 92.3112 42.3673C93.2548 42.1916 94.0411 41.9282 94.1983 41.8403C94.3556 41.8403 97.1076 42.8064 100.331 44.0359ZM83.662 45.8802C82.5612 48.7784 82.4039 54.0479 83.3475 55.3652C84.9201 57.473 87.7507 56.946 90.66 54.0479C92.154 52.5549 93.8052 51.4131 94.3556 51.4131C95.2205 51.4131 108.666 63.3572 109.059 64.4989C109.217 64.7624 108.981 65.5528 108.588 66.2554C108.037 67.2214 107.015 66.7823 103.791 63.7085C100.646 60.8103 99.5451 60.1955 98.8375 60.9859C98.1298 61.7764 98.7588 62.9181 101.747 65.8163C104.106 68.0997 105.442 69.944 105.049 70.5588C104.106 72.2274 103.083 71.7883 99.152 68.0997C97.1076 66.1676 95.2205 64.5867 94.906 64.5867C93.412 64.5867 94.6701 67.5727 97.3435 70.2075C99.4665 72.4909 100.017 73.5448 99.3879 74.2474C98.7588 74.9499 97.5008 74.3352 94.8274 71.7005C92.783 69.6805 90.7386 68.2753 90.3455 68.5388C89.0874 69.417 89.5592 71.3492 91.4463 72.7544C92.783 73.8082 92.9403 74.3352 92.2326 75.1256C91.5249 76.0038 89.9523 74.9499 84.9987 70.3831C81.539 67.1336 77.9221 63.2694 76.9785 61.8642C75.4845 59.4929 75.4059 58.8782 76.2708 54.6626C78.0793 46.1437 79.0229 44.3872 81.8535 44.3872C83.8979 44.3872 84.2124 44.6507 83.662 45.8802Z" fill="#FEFEFE"/>
<path d="M23.6972 115.24C21.9639 115.24 20.4305 115.04 19.0972 114.64C17.7905 114.24 16.6705 113.507 15.7372 112.44C14.8305 111.373 14.1372 109.853 13.6572 107.88C13.2039 105.88 12.9772 103.293 12.9772 100.12C12.9772 97.0533 13.2172 94.5467 13.6972 92.6C14.2039 90.6267 14.9239 89.1067 15.8572 88.04C16.7905 86.9467 17.9239 86.1867 19.2572 85.76C20.5905 85.3333 22.0972 85.12 23.7772 85.12C25.1105 85.12 26.3505 85.2 27.4972 85.36C28.6705 85.4933 29.7239 85.6667 30.6572 85.88C31.5905 86.0667 32.3772 86.28 33.0172 86.52V91.12C32.5372 91.0133 31.8839 90.9067 31.0572 90.8C30.2572 90.6933 29.3372 90.6133 28.2972 90.56C27.2572 90.48 26.1639 90.44 25.0172 90.44C23.8972 90.44 22.9372 90.5733 22.1372 90.84C21.3639 91.08 20.7372 91.5467 20.2572 92.24C19.8039 92.9067 19.4572 93.88 19.2172 95.16C19.0039 96.44 18.8972 98.1067 18.8972 100.16C18.8972 102.133 18.9905 103.76 19.1772 105.04C19.3905 106.32 19.7239 107.32 20.1772 108.04C20.6305 108.733 21.2439 109.227 22.0172 109.52C22.8172 109.787 23.8172 109.92 25.0172 109.92C27.0439 109.92 28.6839 109.88 29.9372 109.8C31.2172 109.72 32.2439 109.627 33.0172 109.52V114.08C32.2972 114.32 31.4705 114.533 30.5372 114.72C29.6039 114.88 28.5772 115 27.4572 115.08C26.3372 115.187 25.0839 115.24 23.6972 115.24ZM43.4547 115.24C41.828 115.24 40.508 114.76 39.4947 113.8C38.4814 112.84 37.9747 111.507 37.9747 109.8V107.88C37.9747 106.253 38.548 104.92 39.6947 103.88C40.8414 102.813 42.628 102.28 45.0547 102.28H50.5347V100.8C50.5347 100.133 50.4147 99.5867 50.1747 99.16C49.9347 98.7067 49.4814 98.3867 48.8147 98.2C48.1747 97.9867 47.188 97.88 45.8547 97.88H39.4147V94.44C40.4547 94.12 41.6547 93.84 43.0147 93.6C44.4014 93.36 46.068 93.24 48.0147 93.24C49.8014 93.24 51.3214 93.4533 52.5747 93.88C53.8547 94.3067 54.8147 95.04 55.4547 96.08C56.1214 97.12 56.4547 98.56 56.4547 100.4V115H51.7747L50.8147 112.72C50.628 112.933 50.308 113.173 49.8547 113.44C49.4014 113.707 48.8414 113.987 48.1747 114.28C47.5347 114.547 46.8014 114.773 45.9747 114.96C45.1747 115.147 44.3347 115.24 43.4547 115.24ZM46.4547 111.12C46.7214 111.12 47.0147 111.093 47.3347 111.04C47.6814 110.96 48.028 110.88 48.3747 110.8C48.748 110.693 49.0814 110.6 49.3747 110.52C49.6947 110.413 49.948 110.32 50.1347 110.24C50.348 110.16 50.4814 110.107 50.5347 110.08V105.08L46.9347 105.32C45.8947 105.4 45.1214 105.667 44.6147 106.12C44.1347 106.573 43.8947 107.187 43.8947 107.96V108.84C43.8947 109.373 44.0014 109.813 44.2147 110.16C44.4547 110.507 44.7614 110.76 45.1347 110.92C45.5347 111.053 45.9747 111.12 46.4547 111.12ZM62.8869 115V93.52H67.4469L68.8069 96.8C69.5802 95.8133 70.4469 94.9733 71.4069 94.28C72.3936 93.5867 73.5536 93.24 74.8869 93.24C75.1802 93.24 75.4736 93.2533 75.7669 93.28C76.0869 93.3067 76.3802 93.36 76.6469 93.44V99.52C76.2469 99.4667 75.8202 99.4267 75.3669 99.4C74.9402 99.3467 74.5269 99.32 74.1269 99.32C73.3536 99.32 72.6469 99.4133 72.0069 99.6C71.3936 99.76 70.8202 100.013 70.2869 100.36C69.7802 100.68 69.2869 101.107 68.8069 101.64V115H62.8869ZM94.3935 115V85.4H106.913C108.913 85.4 110.58 85.76 111.913 86.48C113.247 87.1733 114.3 88.1867 115.073 89.52C115.873 90.8267 116.433 92.3867 116.753 94.2C117.073 96.0133 117.233 98.0133 117.233 100.2C117.233 103.533 116.847 106.293 116.073 108.48C115.327 110.667 114.193 112.307 112.673 113.4C111.153 114.467 109.233 115 106.913 115H94.3935ZM100.313 109.68H106.313C107.54 109.68 108.513 109.333 109.233 108.64C109.953 107.92 110.473 106.853 110.793 105.44C111.14 104.027 111.313 102.28 111.313 100.2C111.313 98.28 111.207 96.7067 110.993 95.48C110.78 94.2267 110.46 93.2533 110.033 92.56C109.633 91.8667 109.113 91.3867 108.473 91.12C107.86 90.8533 107.14 90.72 106.313 90.72H100.313V109.68ZM131.95 115.2C129.577 115.2 127.684 114.893 126.27 114.28C124.857 113.64 123.83 112.52 123.19 110.92C122.577 109.32 122.27 107.107 122.27 104.28C122.27 101.373 122.564 99.12 123.15 97.52C123.737 95.92 124.724 94.8 126.11 94.16C127.497 93.52 129.377 93.2 131.75 93.2C133.884 93.2 135.59 93.4133 136.87 93.84C138.15 94.2667 139.07 95.0133 139.63 96.08C140.217 97.1467 140.51 98.6533 140.51 100.6C140.51 102.04 140.217 103.187 139.63 104.04C139.07 104.867 138.27 105.467 137.23 105.84C136.19 106.187 134.964 106.36 133.55 106.36H128.15C128.204 107.453 128.364 108.333 128.63 109C128.924 109.64 129.444 110.107 130.19 110.4C130.964 110.667 132.07 110.8 133.51 110.8H139.79V114.28C138.75 114.493 137.604 114.707 136.35 114.92C135.124 115.107 133.657 115.2 131.95 115.2ZM128.07 102.84H132.95C133.75 102.84 134.337 102.68 134.71 102.36C135.084 102.04 135.27 101.467 135.27 100.64C135.27 99.8667 135.15 99.2533 134.91 98.8C134.67 98.32 134.297 97.9867 133.79 97.8C133.284 97.5867 132.604 97.48 131.75 97.48C130.844 97.48 130.124 97.64 129.59 97.96C129.057 98.2533 128.67 98.7867 128.43 99.56C128.19 100.333 128.07 101.427 128.07 102.84ZM150.955 115.24C149.328 115.24 148.008 114.76 146.995 113.8C145.981 112.84 145.475 111.507 145.475 109.8V107.88C145.475 106.253 146.048 104.92 147.195 103.88C148.341 102.813 150.128 102.28 152.555 102.28H158.035V100.8C158.035 100.133 157.915 99.5867 157.675 99.16C157.435 98.7067 156.981 98.3867 156.315 98.2C155.675 97.9867 154.688 97.88 153.355 97.88H146.915V94.44C147.955 94.12 149.155 93.84 150.515 93.6C151.901 93.36 153.568 93.24 155.515 93.24C157.301 93.24 158.821 93.4533 160.075 93.88C161.355 94.3067 162.315 95.04 162.955 96.08C163.621 97.12 163.955 98.56 163.955 100.4V115H159.275L158.315 112.72C158.128 112.933 157.808 113.173 157.355 113.44C156.901 113.707 156.341 113.987 155.675 114.28C155.035 114.547 154.301 114.773 153.475 114.96C152.675 115.147 151.835 115.24 150.955 115.24ZM153.955 111.12C154.221 111.12 154.515 111.093 154.835 111.04C155.181 110.96 155.528 110.88 155.875 110.8C156.248 110.693 156.581 110.6 156.875 110.52C157.195 110.413 157.448 110.32 157.635 110.24C157.848 110.16 157.981 110.107 158.035 110.08V105.08L154.435 105.32C153.395 105.4 152.621 105.667 152.115 106.12C151.635 106.573 151.395 107.187 151.395 107.96V108.84C151.395 109.373 151.501 109.813 151.715 110.16C151.955 110.507 152.261 110.76 152.635 110.92C153.035 111.053 153.475 111.12 153.955 111.12ZM177.107 115.08C175.587 115.08 174.32 114.84 173.307 114.36C172.32 113.853 171.587 113.093 171.107 112.08C170.627 111.04 170.387 109.707 170.387 108.08V84.48H176.307V107.2C176.307 108 176.387 108.64 176.547 109.12C176.707 109.573 176.947 109.907 177.267 110.12C177.614 110.333 178.04 110.48 178.547 110.56L180.187 110.8V115.08H177.107Z" fill="#FEFEFE"/>
</svg>
